<?xml version="1.0" encoding="utf-8"?>
<svg xmlns="http://www.w3.org/2000/svg" fill="none" height="50" viewBox="0 0 118 50" width="118">
    <path d="M64.3086 15.752H70.3561C72.2899 15.752 73.8129 16.2073 74.9253 17.1194C76.0377 18.0128 76.5939 19.1986 76.5939 20.677C76.5939 21.6986 76.3014 22.592 75.7178 23.3586C75.153 24.1251 74.4224 24.6165 73.5291 24.8355C74.5319 25.0185 75.372 25.4825 76.0463 26.2303C76.7394 26.9782 77.0867 27.9811 77.0867 29.2404C77.0867 30.7001 76.5852 31.8946 75.5824 32.8254C74.5968 33.7375 73.202 34.1929 71.3965 34.1929H64.31V15.752H64.3086ZM67.127 18.0776V23.7419H69.6717C71.0391 23.7419 72.0521 23.4681 72.7092 22.9205C73.3835 22.3557 73.7221 21.6251 73.7221 20.7318C73.7221 19.9479 73.421 19.3096 72.8187 18.8168C72.2351 18.324 71.3417 18.0776 70.1371 18.0776H67.127V18.0776ZM67.127 31.8672H70.7394C73.0564 31.8672 74.2149 30.909 74.2149 28.994C74.2149 28.0632 73.895 27.3427 73.2567 26.8326C72.6371 26.3038 71.7063 26.0387 70.4657 26.0387H67.127V31.8672V31.8672Z" fill="#090A3A"/>
    <path d="M88.7162 20.3231H91.3978V34.1948H88.7162V31.8144C87.9871 33.5104 86.5462 34.3591 84.3935 34.3591C83.026 34.3591 81.9396 33.9571 81.137 33.1545C80.3344 32.3331 79.9324 31.2121 79.9324 29.7885V20.3216H82.6413V29.1314C82.6413 30.0795 82.869 30.8101 83.3258 31.3202C83.7998 31.813 84.4482 32.0594 85.2681 32.0594C86.3085 32.0594 87.1384 31.6948 87.758 30.9643C88.3963 30.2352 88.7162 29.2035 88.7162 27.8721V20.3202V20.3231Z" fill="#090A3A"/>
    <path d="M102.31 14.8224V17.1754C101.89 16.9924 101.452 16.9017 100.997 16.9017C99.6654 16.9017 98.9997 17.6956 98.9997 19.2821V20.3224H101.928V22.4017H98.9997V34.1942H96.3182V22.4017H94.1021V20.3224H96.3182V19.2547C96.3182 17.8138 96.7015 16.6826 97.468 15.8613C98.2519 15.0227 99.347 14.6034 100.752 14.6034C101.262 14.6034 101.782 14.6769 102.311 14.8224H102.31Z" fill="#090A3A"/>
    <path d="M3.57204 0H0V39.2853H3.57204V0Z" fill="#77E1FF"/>
    <path d="M10.7151 0H7.14307V39.2853H10.7151V0Z" fill="#77E1FF"/>
    <path d="M17.8579 0H14.2859V39.2853H17.8579V0Z" fill="#77E1FF"/>
    <path d="M25.001 0H21.429V39.2853H25.001V0Z" fill="#77E1FF"/>
    <path d="M32.1431 0H28.571V39.2853H32.1431V0Z" fill="#77E1FF"/>
    <path d="M39.2862 0H35.7141V39.2853H39.2862V0Z" fill="#77E1FF"/>
    <path d="M14.2862 10.7147H10.7141V50H14.2862V10.7147Z" fill="#161EDE"/>
    <path d="M21.429 10.7147H17.8569V50H21.429V10.7147Z" fill="#161EDE"/>
    <path d="M28.572 10.7147H25V50H28.572V10.7147Z" fill="#161EDE"/>
    <path d="M35.7151 10.7147H32.1431V50H35.7151V10.7147Z" fill="#161EDE"/>
    <path d="M42.8579 10.7147H39.2859V50H42.8579V10.7147Z" fill="#161EDE"/>
    <path d="M50.0008 10.7147H46.4287V50H50.0008V10.7147Z" fill="#161EDE"/>
    <path d="M116.95 18.7015C116.701 18.1179 116.355 17.605 115.913 17.1626C115.471 16.7203 114.958 16.3744 114.374 16.1252C113.791 15.8759 113.165 15.752 112.498 15.752C111.831 15.752 111.205 15.8759 110.622 16.1252C110.038 16.3744 109.527 16.7203 109.083 17.1626C108.641 17.605 108.295 18.1179 108.046 18.7015C107.796 19.2851 107.672 19.9105 107.672 20.5776C107.672 21.2447 107.796 21.8701 108.046 22.4537C108.295 23.0373 108.642 23.5502 109.083 23.9926C109.525 24.4349 110.038 24.7808 110.622 25.0301C111.205 25.2793 111.831 25.4032 112.498 25.4032C113.165 25.4032 113.792 25.2793 114.374 25.0301C114.958 24.7808 115.471 24.4335 115.913 23.9926C116.355 23.5502 116.701 23.0373 116.95 22.4537C117.2 21.8701 117.324 21.2462 117.324 20.5776C117.324 19.909 117.2 19.2837 116.95 18.7015ZM115.894 22.5545C115.54 23.1482 115.067 23.6208 114.474 23.9753C113.88 24.3298 113.221 24.5056 112.498 24.5056C111.775 24.5056 111.115 24.3298 110.523 23.9753C109.93 23.6208 109.456 23.1482 109.102 22.5545C108.747 21.9609 108.571 21.3024 108.571 20.579C108.571 19.8557 108.747 19.1958 109.102 18.6035C109.456 18.0099 109.929 17.5358 110.523 17.1828C111.116 16.8283 111.775 16.6511 112.498 16.6511C113.221 16.6511 113.881 16.8283 114.474 17.1828C115.067 17.5358 115.54 18.0099 115.894 18.6035C116.249 19.1972 116.425 19.8557 116.425 20.579C116.425 21.3024 116.249 21.9623 115.894 22.5545V22.5545Z" fill="#090A3A"/>
    <path d="M113.619 20.9809C113.619 20.9809 113.626 20.9766 113.629 20.9752C113.847 20.8585 114.03 20.6913 114.171 20.4723C114.314 20.2533 114.386 19.9925 114.386 19.6913C114.386 19.3902 114.317 19.1366 114.178 18.9276C114.04 18.7216 113.864 18.5645 113.652 18.4565C113.442 18.3513 113.223 18.2965 112.998 18.2965H110.863V22.749H111.642V21.1495H112.864L113.7 22.749H114.569L113.621 20.9795L113.619 20.9809ZM111.642 18.9075H112.763C112.956 18.9075 113.135 18.968 113.298 19.0876C113.459 19.2086 113.543 19.4103 113.543 19.6913C113.543 19.9723 113.461 20.1755 113.298 20.3224C113.135 20.4694 112.951 20.5415 112.745 20.5415H111.642V18.906V18.9075Z" fill="#090A3A"/>
</svg>